<svg xmlns="http://www.w3.org/2000/svg" width="39.108" height="39.486" viewBox="0 0 39.108 39.486">
  <g id="illustration_gift" transform="translate(1 1)">
    <g id="Group_573" data-name="Group 573">
      <rect id="Rectangle_2768" data-name="Rectangle 2768" width="25.349" height="8.623" transform="translate(11.758 7.891)" fill="#ccf2ff"/>
      <path id="Rectangle_2769" data-name="Rectangle 2769" d="M0,0H26.277a0,0,0,0,1,0,0V17.859a3.067,3.067,0,0,1-3.067,3.067H0a0,0,0,0,1,0,0V0A0,0,0,0,1,0,0Z" transform="translate(8.784 16.561)" fill="#ccf2ff"/>
      <rect id="Rectangle_2770" data-name="Rectangle 2770" width="37.108" height="8.623" rx="2.465" transform="translate(0 7.891)" fill="none" stroke="#1d1d1d" stroke-linecap="round" stroke-linejoin="round" stroke-width="2"/>
      <path id="Rectangle_2771" data-name="Rectangle 2771" d="M0,0H33.014a0,0,0,0,1,0,0V17.488a3.437,3.437,0,0,1-3.437,3.437H3.437A3.437,3.437,0,0,1,0,17.488V0A0,0,0,0,1,0,0Z" transform="translate(2.047 16.561)" fill="none" stroke="#1d1d1d" stroke-linecap="round" stroke-linejoin="round" stroke-width="2"/>
      <path id="Rectangle_2772" data-name="Rectangle 2772" d="M3.853,0h.119A3.853,3.853,0,0,1,7.825,3.853V7.705a0,0,0,0,1,0,0H3.853A3.853,3.853,0,0,1,0,3.853v0A3.853,3.853,0,0,1,3.853,0Z" transform="translate(10.814)" fill="none" stroke="#1d1d1d" stroke-linecap="round" stroke-linejoin="round" stroke-width="2"/>
      <path id="Rectangle_2773" data-name="Rectangle 2773" d="M3.853,0H7.825a0,0,0,0,1,0,0V3.853A3.853,3.853,0,0,1,3.972,7.705H3.853A3.853,3.853,0,0,1,0,3.853v0A3.853,3.853,0,0,1,3.853,0Z" transform="translate(26.509 7.705) rotate(180)" fill="none" stroke="#1d1d1d" stroke-linecap="round" stroke-linejoin="round" stroke-width="2"/>
    </g>
  </g>
</svg>
